<mxfile host="Electron" modified="2023-09-07T01:57:43.405Z" agent="Mozilla/5.0 (Macintosh; Intel Mac OS X 10_15_7) AppleWebKit/537.36 (KHTML, like Gecko) draw.io/21.6.8 Chrome/114.0.5735.289 Electron/25.5.0 Safari/537.36" etag="M86XjaIss4bpw3j_VpWX" version="21.6.8" type="device">
  <diagram name="PÃ¡gina-1" id="FPXZzIMq3E5UXMmmKLnb">
    <mxGraphModel dx="1978" dy="1844" grid="1" gridSize="10" guides="1" tooltips="1" connect="1" arrows="1" fold="1" page="1" pageScale="1" pageWidth="827" pageHeight="1169" math="0" shadow="0">
      <root>
        <mxCell id="0" />
        <mxCell id="1" parent="0" />
        <mxCell id="bjY6o-aBgkKMIR8OwuLO-53" style="edgeStyle=orthogonalEdgeStyle;rounded=0;orthogonalLoop=1;jettySize=auto;html=1;" edge="1" parent="1" source="bjY6o-aBgkKMIR8OwuLO-1" target="bjY6o-aBgkKMIR8OwuLO-22">
          <mxGeometry relative="1" as="geometry" />
        </mxCell>
        <mxCell id="bjY6o-aBgkKMIR8OwuLO-1" value="Cliente" style="swimlane;fontStyle=1;align=center;verticalAlign=top;childLayout=stackLayout;horizontal=1;startSize=26;horizontalStack=0;resizeParent=1;resizeParentMax=0;resizeLast=0;collapsible=1;marginBottom=0;whiteSpace=wrap;html=1;" vertex="1" parent="1">
          <mxGeometry x="210" y="-270" width="180" height="130" as="geometry" />
        </mxCell>
        <mxCell id="bjY6o-aBgkKMIR8OwuLO-2" value="+ cliente_id" style="text;strokeColor=none;fillColor=none;align=left;verticalAlign=top;spacingLeft=4;spacingRight=4;overflow=hidden;rotatable=0;points=[[0,0.5],[1,0.5]];portConstraint=eastwest;whiteSpace=wrap;html=1;" vertex="1" parent="bjY6o-aBgkKMIR8OwuLO-1">
          <mxGeometry y="26" width="180" height="34" as="geometry" />
        </mxCell>
        <mxCell id="bjY6o-aBgkKMIR8OwuLO-3" value="" style="line;strokeWidth=1;fillColor=none;align=left;verticalAlign=middle;spacingTop=-1;spacingLeft=3;spacingRight=3;rotatable=0;labelPosition=right;points=[];portConstraint=eastwest;strokeColor=inherit;" vertex="1" parent="bjY6o-aBgkKMIR8OwuLO-1">
          <mxGeometry y="60" width="180" height="10" as="geometry" />
        </mxCell>
        <mxCell id="bjY6o-aBgkKMIR8OwuLO-4" value="+ reservar()&lt;br&gt;+ modificarReserva()&lt;br&gt;+ eliminarReserva()" style="text;strokeColor=none;fillColor=none;align=left;verticalAlign=top;spacingLeft=4;spacingRight=4;overflow=hidden;rotatable=0;points=[[0,0.5],[1,0.5]];portConstraint=eastwest;whiteSpace=wrap;html=1;" vertex="1" parent="bjY6o-aBgkKMIR8OwuLO-1">
          <mxGeometry y="70" width="180" height="60" as="geometry" />
        </mxCell>
        <mxCell id="bjY6o-aBgkKMIR8OwuLO-22" value="Reserva" style="swimlane;fontStyle=1;align=center;verticalAlign=top;childLayout=stackLayout;horizontal=1;startSize=26;horizontalStack=0;resizeParent=1;resizeParentMax=0;resizeLast=0;collapsible=1;marginBottom=0;whiteSpace=wrap;html=1;" vertex="1" parent="1">
          <mxGeometry x="220" y="-80" width="160" height="174" as="geometry" />
        </mxCell>
        <mxCell id="bjY6o-aBgkKMIR8OwuLO-23" value="+ reserva_id&lt;br&gt;+ habitacion_id&lt;br&gt;+ cliente_id&lt;br&gt;+ detalle_pago_id&lt;br&gt;+ fecha_entrada&lt;br&gt;+ fecha_salida&lt;br&gt;+ cant_personas" style="text;strokeColor=none;fillColor=none;align=left;verticalAlign=top;spacingLeft=4;spacingRight=4;overflow=hidden;rotatable=0;points=[[0,0.5],[1,0.5]];portConstraint=eastwest;whiteSpace=wrap;html=1;" vertex="1" parent="bjY6o-aBgkKMIR8OwuLO-22">
          <mxGeometry y="26" width="160" height="114" as="geometry" />
        </mxCell>
        <mxCell id="bjY6o-aBgkKMIR8OwuLO-24" value="" style="line;strokeWidth=1;fillColor=none;align=left;verticalAlign=middle;spacingTop=-1;spacingLeft=3;spacingRight=3;rotatable=0;labelPosition=right;points=[];portConstraint=eastwest;strokeColor=inherit;" vertex="1" parent="bjY6o-aBgkKMIR8OwuLO-22">
          <mxGeometry y="140" width="160" height="8" as="geometry" />
        </mxCell>
        <mxCell id="bjY6o-aBgkKMIR8OwuLO-25" value="+ method(type): type" style="text;strokeColor=none;fillColor=none;align=left;verticalAlign=top;spacingLeft=4;spacingRight=4;overflow=hidden;rotatable=0;points=[[0,0.5],[1,0.5]];portConstraint=eastwest;whiteSpace=wrap;html=1;" vertex="1" parent="bjY6o-aBgkKMIR8OwuLO-22">
          <mxGeometry y="148" width="160" height="26" as="geometry" />
        </mxCell>
        <mxCell id="bjY6o-aBgkKMIR8OwuLO-60" style="edgeStyle=orthogonalEdgeStyle;rounded=0;orthogonalLoop=1;jettySize=auto;html=1;entryX=0.5;entryY=1;entryDx=0;entryDy=0;" edge="1" parent="1" source="bjY6o-aBgkKMIR8OwuLO-26" target="bjY6o-aBgkKMIR8OwuLO-30">
          <mxGeometry relative="1" as="geometry" />
        </mxCell>
        <mxCell id="bjY6o-aBgkKMIR8OwuLO-26" value="Hotel" style="swimlane;fontStyle=1;align=center;verticalAlign=top;childLayout=stackLayout;horizontal=1;startSize=26;horizontalStack=0;resizeParent=1;resizeParentMax=0;resizeLast=0;collapsible=1;marginBottom=0;whiteSpace=wrap;html=1;" vertex="1" parent="1">
          <mxGeometry x="-20" y="140" width="160" height="108" as="geometry">
            <mxRectangle x="240" y="260" width="70" height="30" as="alternateBounds" />
          </mxGeometry>
        </mxCell>
        <mxCell id="bjY6o-aBgkKMIR8OwuLO-27" value="+ hotel_id&lt;br&gt;+ nombre_hotel&lt;br&gt;+ direccion_hotel&lt;br&gt;+ categoria_hotel" style="text;strokeColor=none;fillColor=none;align=left;verticalAlign=top;spacingLeft=4;spacingRight=4;overflow=hidden;rotatable=0;points=[[0,0.5],[1,0.5]];portConstraint=eastwest;whiteSpace=wrap;html=1;" vertex="1" parent="bjY6o-aBgkKMIR8OwuLO-26">
          <mxGeometry y="26" width="160" height="74" as="geometry" />
        </mxCell>
        <mxCell id="bjY6o-aBgkKMIR8OwuLO-28" value="" style="line;strokeWidth=1;fillColor=none;align=left;verticalAlign=middle;spacingTop=-1;spacingLeft=3;spacingRight=3;rotatable=0;labelPosition=right;points=[];portConstraint=eastwest;strokeColor=inherit;" vertex="1" parent="bjY6o-aBgkKMIR8OwuLO-26">
          <mxGeometry y="100" width="160" height="8" as="geometry" />
        </mxCell>
        <mxCell id="bjY6o-aBgkKMIR8OwuLO-30" value="Habitacion" style="swimlane;fontStyle=1;align=center;verticalAlign=top;childLayout=stackLayout;horizontal=1;startSize=26;horizontalStack=0;resizeParent=1;resizeParentMax=0;resizeLast=0;collapsible=1;marginBottom=0;whiteSpace=wrap;html=1;" vertex="1" parent="1">
          <mxGeometry x="-20" y="-70" width="160" height="128" as="geometry" />
        </mxCell>
        <mxCell id="bjY6o-aBgkKMIR8OwuLO-31" value="+ habitacion_id&lt;br&gt;+ hotel_id&lt;br&gt;+ tipo_hab&lt;br&gt;+ capacidad&lt;br&gt;+ precio" style="text;strokeColor=none;fillColor=none;align=left;verticalAlign=top;spacingLeft=4;spacingRight=4;overflow=hidden;rotatable=0;points=[[0,0.5],[1,0.5]];portConstraint=eastwest;whiteSpace=wrap;html=1;" vertex="1" parent="bjY6o-aBgkKMIR8OwuLO-30">
          <mxGeometry y="26" width="160" height="94" as="geometry" />
        </mxCell>
        <mxCell id="bjY6o-aBgkKMIR8OwuLO-32" value="" style="line;strokeWidth=1;fillColor=none;align=left;verticalAlign=middle;spacingTop=-1;spacingLeft=3;spacingRight=3;rotatable=0;labelPosition=right;points=[];portConstraint=eastwest;strokeColor=inherit;" vertex="1" parent="bjY6o-aBgkKMIR8OwuLO-30">
          <mxGeometry y="120" width="160" height="8" as="geometry" />
        </mxCell>
        <mxCell id="bjY6o-aBgkKMIR8OwuLO-58" style="edgeStyle=orthogonalEdgeStyle;rounded=0;orthogonalLoop=1;jettySize=auto;html=1;entryX=1;entryY=0.5;entryDx=0;entryDy=0;" edge="1" parent="1" source="bjY6o-aBgkKMIR8OwuLO-34" target="bjY6o-aBgkKMIR8OwuLO-47">
          <mxGeometry relative="1" as="geometry" />
        </mxCell>
        <mxCell id="bjY6o-aBgkKMIR8OwuLO-34" value="Metodo Pago" style="swimlane;fontStyle=1;align=center;verticalAlign=top;childLayout=stackLayout;horizontal=1;startSize=26;horizontalStack=0;resizeParent=1;resizeParentMax=0;resizeLast=0;collapsible=1;marginBottom=0;whiteSpace=wrap;html=1;" vertex="1" parent="1">
          <mxGeometry x="700" y="-49" width="160" height="104" as="geometry" />
        </mxCell>
        <mxCell id="bjY6o-aBgkKMIR8OwuLO-35" value="+ metodo_pago_id&lt;br&gt;+ tipo_metodo" style="text;strokeColor=none;fillColor=none;align=left;verticalAlign=top;spacingLeft=4;spacingRight=4;overflow=hidden;rotatable=0;points=[[0,0.5],[1,0.5]];portConstraint=eastwest;whiteSpace=wrap;html=1;" vertex="1" parent="bjY6o-aBgkKMIR8OwuLO-34">
          <mxGeometry y="26" width="160" height="44" as="geometry" />
        </mxCell>
        <mxCell id="bjY6o-aBgkKMIR8OwuLO-36" value="" style="line;strokeWidth=1;fillColor=none;align=left;verticalAlign=middle;spacingTop=-1;spacingLeft=3;spacingRight=3;rotatable=0;labelPosition=right;points=[];portConstraint=eastwest;strokeColor=inherit;" vertex="1" parent="bjY6o-aBgkKMIR8OwuLO-34">
          <mxGeometry y="70" width="160" height="8" as="geometry" />
        </mxCell>
        <mxCell id="bjY6o-aBgkKMIR8OwuLO-37" value="+ method(type): type" style="text;strokeColor=none;fillColor=none;align=left;verticalAlign=top;spacingLeft=4;spacingRight=4;overflow=hidden;rotatable=0;points=[[0,0.5],[1,0.5]];portConstraint=eastwest;whiteSpace=wrap;html=1;" vertex="1" parent="bjY6o-aBgkKMIR8OwuLO-34">
          <mxGeometry y="78" width="160" height="26" as="geometry" />
        </mxCell>
        <mxCell id="bjY6o-aBgkKMIR8OwuLO-38" value="Administrador" style="swimlane;fontStyle=1;align=center;verticalAlign=top;childLayout=stackLayout;horizontal=1;startSize=26;horizontalStack=0;resizeParent=1;resizeParentMax=0;resizeLast=0;collapsible=1;marginBottom=0;whiteSpace=wrap;html=1;" vertex="1" parent="1">
          <mxGeometry x="750" y="-270" width="180" height="190" as="geometry" />
        </mxCell>
        <mxCell id="bjY6o-aBgkKMIR8OwuLO-39" value="+ administrador_id" style="text;strokeColor=none;fillColor=none;align=left;verticalAlign=top;spacingLeft=4;spacingRight=4;overflow=hidden;rotatable=0;points=[[0,0.5],[1,0.5]];portConstraint=eastwest;whiteSpace=wrap;html=1;" vertex="1" parent="bjY6o-aBgkKMIR8OwuLO-38">
          <mxGeometry y="26" width="180" height="34" as="geometry" />
        </mxCell>
        <mxCell id="bjY6o-aBgkKMIR8OwuLO-40" value="" style="line;strokeWidth=1;fillColor=none;align=left;verticalAlign=middle;spacingTop=-1;spacingLeft=3;spacingRight=3;rotatable=0;labelPosition=right;points=[];portConstraint=eastwest;strokeColor=inherit;" vertex="1" parent="bjY6o-aBgkKMIR8OwuLO-38">
          <mxGeometry y="60" width="180" height="10" as="geometry" />
        </mxCell>
        <mxCell id="bjY6o-aBgkKMIR8OwuLO-41" value="+ reservar()&lt;br&gt;+ modificarReserva()&lt;br&gt;+ eliminarReserva()&lt;br&gt;+ modificarPrecio()&lt;br&gt;+ crearUsuario()&lt;br&gt;+ modificarUsuario()&lt;br&gt;+ eliminarUsuario()" style="text;strokeColor=none;fillColor=none;align=left;verticalAlign=top;spacingLeft=4;spacingRight=4;overflow=hidden;rotatable=0;points=[[0,0.5],[1,0.5]];portConstraint=eastwest;whiteSpace=wrap;html=1;" vertex="1" parent="bjY6o-aBgkKMIR8OwuLO-38">
          <mxGeometry y="70" width="180" height="120" as="geometry" />
        </mxCell>
        <mxCell id="bjY6o-aBgkKMIR8OwuLO-54" style="edgeStyle=orthogonalEdgeStyle;rounded=0;orthogonalLoop=1;jettySize=auto;html=1;entryX=0;entryY=0.5;entryDx=0;entryDy=0;" edge="1" parent="1" source="bjY6o-aBgkKMIR8OwuLO-42" target="bjY6o-aBgkKMIR8OwuLO-39">
          <mxGeometry relative="1" as="geometry" />
        </mxCell>
        <mxCell id="bjY6o-aBgkKMIR8OwuLO-55" style="edgeStyle=orthogonalEdgeStyle;rounded=0;orthogonalLoop=1;jettySize=auto;html=1;" edge="1" parent="1" source="bjY6o-aBgkKMIR8OwuLO-42" target="bjY6o-aBgkKMIR8OwuLO-2">
          <mxGeometry relative="1" as="geometry" />
        </mxCell>
        <mxCell id="bjY6o-aBgkKMIR8OwuLO-42" value="Usuario" style="swimlane;fontStyle=1;align=center;verticalAlign=top;childLayout=stackLayout;horizontal=1;startSize=26;horizontalStack=0;resizeParent=1;resizeParentMax=0;resizeLast=0;collapsible=1;marginBottom=0;whiteSpace=wrap;html=1;" vertex="1" parent="1">
          <mxGeometry x="480" y="-332" width="180" height="210" as="geometry" />
        </mxCell>
        <mxCell id="bjY6o-aBgkKMIR8OwuLO-43" value="+ usuario_id&lt;br&gt;+ nombre_usuario&lt;br&gt;+ apellido_usuario&lt;br&gt;+ rut_usuario&lt;br&gt;+ dv_usuario&lt;br&gt;+ correo_usuario&lt;br&gt;+ telefono_usuario" style="text;strokeColor=none;fillColor=none;align=left;verticalAlign=top;spacingLeft=4;spacingRight=4;overflow=hidden;rotatable=0;points=[[0,0.5],[1,0.5]];portConstraint=eastwest;whiteSpace=wrap;html=1;" vertex="1" parent="bjY6o-aBgkKMIR8OwuLO-42">
          <mxGeometry y="26" width="180" height="114" as="geometry" />
        </mxCell>
        <mxCell id="bjY6o-aBgkKMIR8OwuLO-44" value="" style="line;strokeWidth=1;fillColor=none;align=left;verticalAlign=middle;spacingTop=-1;spacingLeft=3;spacingRight=3;rotatable=0;labelPosition=right;points=[];portConstraint=eastwest;strokeColor=inherit;" vertex="1" parent="bjY6o-aBgkKMIR8OwuLO-42">
          <mxGeometry y="140" width="180" height="10" as="geometry" />
        </mxCell>
        <mxCell id="bjY6o-aBgkKMIR8OwuLO-45" value="+ reservar()&lt;br&gt;+ modificarReserva()&lt;br&gt;+ eliminarReserva()" style="text;strokeColor=none;fillColor=none;align=left;verticalAlign=top;spacingLeft=4;spacingRight=4;overflow=hidden;rotatable=0;points=[[0,0.5],[1,0.5]];portConstraint=eastwest;whiteSpace=wrap;html=1;" vertex="1" parent="bjY6o-aBgkKMIR8OwuLO-42">
          <mxGeometry y="150" width="180" height="60" as="geometry" />
        </mxCell>
        <mxCell id="bjY6o-aBgkKMIR8OwuLO-46" value="Detalle Pago" style="swimlane;fontStyle=1;align=center;verticalAlign=top;childLayout=stackLayout;horizontal=1;startSize=26;horizontalStack=0;resizeParent=1;resizeParentMax=0;resizeLast=0;collapsible=1;marginBottom=0;whiteSpace=wrap;html=1;" vertex="1" parent="1">
          <mxGeometry x="460" y="-65" width="160" height="144" as="geometry" />
        </mxCell>
        <mxCell id="bjY6o-aBgkKMIR8OwuLO-47" value="+ detalle_pago_id&lt;br&gt;+ metodo_pago_id&lt;br&gt;+ pago_inicial&lt;br&gt;+ pago_pendiente&lt;br&gt;+ fecha_pago" style="text;strokeColor=none;fillColor=none;align=left;verticalAlign=top;spacingLeft=4;spacingRight=4;overflow=hidden;rotatable=0;points=[[0,0.5],[1,0.5]];portConstraint=eastwest;whiteSpace=wrap;html=1;" vertex="1" parent="bjY6o-aBgkKMIR8OwuLO-46">
          <mxGeometry y="26" width="160" height="84" as="geometry" />
        </mxCell>
        <mxCell id="bjY6o-aBgkKMIR8OwuLO-48" value="" style="line;strokeWidth=1;fillColor=none;align=left;verticalAlign=middle;spacingTop=-1;spacingLeft=3;spacingRight=3;rotatable=0;labelPosition=right;points=[];portConstraint=eastwest;strokeColor=inherit;" vertex="1" parent="bjY6o-aBgkKMIR8OwuLO-46">
          <mxGeometry y="110" width="160" height="8" as="geometry" />
        </mxCell>
        <mxCell id="bjY6o-aBgkKMIR8OwuLO-49" value="+ method(type): type" style="text;strokeColor=none;fillColor=none;align=left;verticalAlign=top;spacingLeft=4;spacingRight=4;overflow=hidden;rotatable=0;points=[[0,0.5],[1,0.5]];portConstraint=eastwest;whiteSpace=wrap;html=1;" vertex="1" parent="bjY6o-aBgkKMIR8OwuLO-46">
          <mxGeometry y="118" width="160" height="26" as="geometry" />
        </mxCell>
        <mxCell id="bjY6o-aBgkKMIR8OwuLO-57" style="edgeStyle=orthogonalEdgeStyle;rounded=0;orthogonalLoop=1;jettySize=auto;html=1;entryX=0;entryY=0.5;entryDx=0;entryDy=0;" edge="1" parent="1" source="bjY6o-aBgkKMIR8OwuLO-31" target="bjY6o-aBgkKMIR8OwuLO-23">
          <mxGeometry relative="1" as="geometry" />
        </mxCell>
        <mxCell id="bjY6o-aBgkKMIR8OwuLO-59" style="edgeStyle=orthogonalEdgeStyle;rounded=0;orthogonalLoop=1;jettySize=auto;html=1;entryX=1;entryY=0.5;entryDx=0;entryDy=0;" edge="1" parent="1" source="bjY6o-aBgkKMIR8OwuLO-47" target="bjY6o-aBgkKMIR8OwuLO-23">
          <mxGeometry relative="1" as="geometry" />
        </mxCell>
      </root>
    </mxGraphModel>
  </diagram>
</mxfile>
